M48
; DRILL file {KiCad (5.1.6)-1} date 08/22/20 12:18:16
; FORMAT={-:-/ absolute / inch / decimal}
; #@! TF.CreationDate,2020-08-22T12:18:16-07:00
; #@! TF.GenerationSoftware,Kicad,Pcbnew,(5.1.6)-1
FMAT,2
INCH
T1C0.0079
T2C0.0100
T3C0.0394
T4C0.0433
%
G90
G05
T1
X5.4768Y-3.6434
X5.4768Y-3.6828
X5.5162Y-3.6434
X5.5162Y-3.6828
X5.5556Y-3.6434
X5.5556Y-3.6828
T2
X4.5Y-2.3
X4.5Y-2.45
X4.5Y-2.6
X4.5Y-2.9
X4.5Y-3.05
X4.5Y-3.2
X4.5Y-3.35
X4.5Y-3.5
X4.5Y-3.65
X4.5Y-3.8
X4.5Y-3.95
X4.5Y-4.1
X4.5Y-4.25
X4.5Y-4.4
X4.5Y-4.5
X4.6Y-2.95
X4.6Y-3.05
X4.6Y-3.15
X4.6Y-3.25
X4.6Y-3.35
X4.6Y-3.45
X4.6Y-3.55
X4.6Y-3.65
X4.65Y-2.3
X4.65Y-4.5
X4.7Y-2.45
X4.7Y-3.45
X4.7Y-3.55
X4.7Y-3.65
X4.7Y-3.95
X4.7Y-4.25
X4.8Y-2.3
X4.8Y-3.55
X4.8Y-3.65
X4.8Y-4.5
X4.9Y-2.45
X4.9Y-2.95
X4.9Y-3.55
X4.9Y-3.65
X4.95Y-2.3
X4.95Y-4.5
X5.0Y-2.55
X5.0Y-2.65
X5.0Y-2.95
X5.0Y-3.05
X5.0Y-3.15
X5.0Y-3.25
X5.0Y-3.35
X5.0Y-3.45
X5.0Y-3.55
X5.0Y-3.65
X5.0Y-3.85
X5.0Y-3.95
X5.0Y-4.15
X5.1Y-2.3
X5.1Y-2.45
X5.1Y-2.95
X5.1Y-3.05
X5.1Y-3.15
X5.1Y-3.45
X5.1Y-3.65
X5.1Y-3.75
X5.1Y-3.95
X5.1Y-4.15
X5.1Y-4.5
X5.14Y-2.58
X5.1532Y-2.5555
X5.2Y-2.95
X5.2Y-3.05
X5.2Y-3.15
X5.2Y-3.35
X5.2Y-3.45
X5.2Y-3.55
X5.2Y-3.65
X5.2Y-3.75
X5.2Y-3.95
X5.2Y-4.15
X5.202Y-2.498
X5.25Y-2.3
X5.25Y-4.5
X5.2708Y-2.7381
X5.2708Y-2.7781
X5.3Y-2.45
X5.3Y-2.95
X5.3Y-3.05
X5.3Y-3.25
X5.3Y-3.35
X5.3Y-3.45
X5.3Y-3.55
X5.3Y-3.65
X5.3Y-3.75
X5.3Y-3.95
X5.3Y-4.05
X5.3Y-4.15
X5.3266Y-2.6903
X5.392Y-2.533
X5.3997Y-2.718
X5.4Y-2.3
X5.4Y-2.95
X5.4Y-3.05
X5.4Y-3.35
X5.4Y-3.45
X5.4Y-3.95
X5.4Y-4.15
X5.4Y-4.5
X5.4248Y-2.7371
X5.4288Y-2.6721
X5.467Y-2.787
X5.468Y-2.674
X5.471Y-2.547
X5.5Y-2.45
X5.5Y-3.25
X5.5Y-3.35
X5.504Y-3.708
X5.53Y-3.827
X5.55Y-2.3
X5.55Y-4.5
X5.572Y-2.646
X5.6Y-2.8
X5.6Y-2.85
X5.6Y-2.9
X5.606Y-2.692
X5.627Y-2.735
X5.65Y-2.8
X5.7Y-2.3
X5.7Y-2.45
X5.7Y-2.8
X5.7Y-2.85
X5.7Y-3.35
X5.7Y-4.15
X5.7Y-4.5
X5.75Y-2.85
X5.8Y-3.15
X5.8Y-3.35
X5.8Y-3.65
X5.8Y-3.75
X5.8Y-4.05
X5.8Y-4.15
X5.808Y-2.782
X5.838Y-2.646
X5.85Y-2.3
X5.85Y-4.5
X5.87Y-2.71
X5.9Y-2.45
X5.9Y-3.45
X5.9Y-3.65
X5.9Y-3.75
X5.9Y-3.95
X5.9Y-4.15
X5.91Y-2.629
X5.914Y-2.664
X5.939Y-2.601
X6.0Y-2.3
X6.0Y-3.15
X6.0Y-3.25
X6.0Y-3.35
X6.0Y-3.45
X6.0Y-3.55
X6.0Y-3.65
X6.0Y-3.75
X6.0Y-3.85
X6.0Y-3.95
X6.0Y-4.05
X6.0Y-4.15
X6.0Y-4.5
X6.1Y-2.45
X6.15Y-2.3
X6.15Y-2.4
X6.15Y-2.55
X6.15Y-2.7
X6.15Y-2.85
X6.15Y-3.0
X6.15Y-3.15
X6.15Y-3.3
X6.15Y-3.45
X6.15Y-3.6
X6.15Y-3.75
X6.15Y-3.9
X6.15Y-4.05
X6.15Y-4.2
X6.15Y-4.35
X6.15Y-4.5
T3
X5.6233Y-4.3824
X5.7233Y-4.3824
X5.8233Y-4.3824
X5.9233Y-4.3824
X4.7756Y-3.7309
X4.8756Y-3.7309
X4.9756Y-3.7309
X4.8712Y-3.0778
X4.8712Y-3.1778
X4.8712Y-3.2778
X4.8712Y-3.3778
X4.7616Y-3.0786
X4.7616Y-3.1786
X4.7616Y-3.2786
X4.7616Y-3.3786
X5.4548Y-3.1405
X5.5548Y-3.1405
X5.6548Y-3.1405
X4.7772Y-4.0157
X4.8772Y-4.0157
X4.9772Y-4.0157
X5.6228Y-4.2727
X5.7228Y-4.2727
X5.8228Y-4.2727
X5.9228Y-4.2727
T4
X5.1854Y-4.3845
X5.3854Y-4.3845
T3
G00X4.5776Y-2.6749
M15
G01X4.5776Y-2.7537
M16
G05
G00X4.802Y-2.5962
M15
G01X4.7232Y-2.5962
M16
G05
G00X4.802Y-2.8324
M15
G01X4.7232Y-2.8324
M16
G05
T0
M30
